<svg width="50" height="50" viewBox="0 0 50 50" fill="none" xmlns="http://www.w3.org/2000/svg">
<g clip-path="url(#clip0_42_19)">
<path d="M49.2188 16.1891V19.4547C49.2188 19.8691 49.0541 20.2665 48.7611 20.5596C48.4681 20.8526 48.0707 21.0172 47.6562 21.0172H2.34375C1.92935 21.0172 1.53192 20.8526 1.2389 20.5596C0.94587 20.2665 0.78125 19.8691 0.78125 19.4547V16.1891H49.2188Z" fill="black"/>
<path d="M0.78125 16.3344L23.2609 1.2797C23.7754 0.935083 24.3807 0.751099 25 0.751099C25.6193 0.751099 26.2246 0.935083 26.7391 1.2797L49.2188 16.3344" fill="black"/>
<path d="M30.4688 44.4594H47.6562C48.0707 44.4594 48.4681 44.624 48.7611 44.917C49.0541 45.21 49.2188 45.6074 49.2188 46.0219V49.1469H0.78125V46.0219C0.78125 45.6074 0.94587 45.21 1.2389 44.917C1.53192 44.624 1.92935 44.4594 2.34375 44.4594H18.75" fill="black"/>
<path d="M3.90625 21.0219H11.7188V22.5844C11.7188 22.9988 11.5541 23.3962 11.2611 23.6892C10.9681 23.9822 10.5707 24.1469 10.1562 24.1469H5.46875C5.05435 24.1469 4.65692 23.9822 4.3639 23.6892C4.07087 23.3962 3.90625 22.9988 3.90625 22.5844V21.0219ZM5.46875 41.3344H10.1562C10.5707 41.3344 10.9681 41.499 11.2611 41.792C11.5541 42.085 11.7188 42.4824 11.7188 42.8969V44.4594H3.90625V42.8969C3.90625 42.4824 4.07087 42.085 4.3639 41.792C4.65692 41.499 5.05435 41.3344 5.46875 41.3344Z" fill="black"/>
<path d="M10.1562 24.1469H5.46875V41.3344H10.1562V24.1469Z" fill="black"/>
<path d="M38.2812 21.0219H46.0938V22.5844C46.0938 22.9988 45.9291 23.3962 45.6361 23.6892C45.3431 23.9822 44.9457 24.1469 44.5312 24.1469H39.8438C39.4293 24.1469 39.0319 23.9822 38.7389 23.6892C38.4459 23.3962 38.2812 22.9988 38.2812 22.5844V21.0219ZM39.8438 41.3344H44.5312C44.9457 41.3344 45.3431 41.499 45.6361 41.792C45.9291 42.085 46.0938 42.4824 46.0938 42.8969V44.4594H38.2812V42.8969C38.2812 42.4824 38.4459 42.085 38.7389 41.792C39.0319 41.499 39.4293 41.3344 39.8438 41.3344Z" fill="black"/>
<path d="M44.5312 24.1469H39.8438V41.3344H44.5312V24.1469Z" fill="black"/>
<path d="M25 11.6469C26.2944 11.6469 27.3438 10.5975 27.3438 9.3031C27.3438 8.00868 26.2944 6.95935 25 6.95935C23.7056 6.95935 22.6562 8.00868 22.6562 9.3031C22.6562 10.5975 23.7056 11.6469 25 11.6469Z" fill="black"/>
<path d="M25 39.7719C30.1777 39.7719 34.375 35.5745 34.375 30.3969C34.375 25.2192 30.1777 21.0219 25 21.0219C19.8223 21.0219 15.625 25.2192 15.625 30.3969C15.625 35.5745 19.8223 39.7719 25 39.7719Z" fill="black"/>
<path d="M35.1562 30.4687C35.158 28.6062 34.6476 26.779 33.6807 25.187C32.7139 23.5951 31.3279 22.2996 29.6743 21.4424C28.0207 20.5852 26.1633 20.1992 24.3051 20.3266C22.4469 20.454 20.6595 21.09 19.1384 22.165C17.6174 23.2399 16.4212 24.7125 15.6808 26.4215C14.9403 28.1306 14.6841 30.0104 14.9402 31.8553C15.1962 33.7001 15.9547 35.4391 17.1326 36.8819C18.3105 38.3247 19.8624 39.4158 21.6188 40.0359C21.8146 40.1039 22.0293 40.0913 22.2158 40.0009C22.4024 39.9105 22.5453 39.7497 22.6133 39.5539C22.6812 39.3581 22.6686 39.1433 22.5782 38.9568C22.4878 38.7703 22.3271 38.6273 22.1312 38.5594C20.2207 37.8828 18.6107 36.5526 17.5858 34.804C16.561 33.0554 16.1871 31.0007 16.5304 29.0032C16.8736 27.0056 17.9119 25.1936 19.4617 23.8874C21.0115 22.5812 22.9732 21.8648 25 21.8648C27.0268 21.8648 28.9885 22.5812 30.5383 23.8874C32.0881 25.1936 33.1264 27.0056 33.4696 29.0032C33.8129 31.0007 33.439 33.0554 32.4142 34.804C31.3893 36.5526 29.7793 37.8828 27.8688 38.5594C27.6947 38.6202 27.5477 38.7407 27.4539 38.8994C27.3601 39.0582 27.3255 39.245 27.3562 39.4268C27.3868 39.6087 27.4808 39.7738 27.6216 39.893C27.7623 40.0122 27.9406 40.0778 28.125 40.0781C28.2122 40.0783 28.2987 40.064 28.3812 40.0359C30.3634 39.341 32.0803 38.0468 33.2942 36.3326C34.5081 34.6184 35.1588 32.5692 35.1562 30.4687ZM46.875 22.6562V21.875H47.6562C48.2779 21.875 48.874 21.6281 49.3135 21.1885C49.7531 20.749 50 20.1528 50 19.5312V16.4062C50 16.3812 49.9875 16.3594 49.9859 16.3344C49.981 16.2813 49.9705 16.229 49.9547 16.1781C49.9093 16.0337 49.823 15.9056 49.7063 15.8094C49.6875 15.7937 49.675 15.7719 49.6547 15.7562L27.1734 0.703115C26.5312 0.270517 25.7744 0.0394287 25 0.0394287C24.2256 0.0394287 23.4688 0.270517 22.8266 0.703115L0.346875 15.7562C0.325 15.7703 0.314062 15.7922 0.295312 15.8094C0.176836 15.9041 0.0901493 16.0327 0.046875 16.1781C0.0310631 16.229 0.0205899 16.2813 0.015625 16.3344C0.015625 16.3594 0.0015625 16.3797 0.0015625 16.4062V19.5312C0.00156236 20.1526 0.248278 20.7485 0.687478 21.188C1.12668 21.6275 1.72242 21.8746 2.34375 21.875H3.125V22.6562C3.127 23.1393 3.27819 23.6099 3.55788 24.0037C3.83757 24.3975 4.2321 24.6952 4.6875 24.8562V40.6937C4.2321 40.8547 3.83757 41.1525 3.55788 41.5463C3.27819 41.9401 3.127 42.4107 3.125 42.8937V43.75H2.34375C1.72215 43.75 1.12601 43.9969 0.686468 44.4365C0.24693 44.876 0 45.4721 0 46.0937L0 49.2187C0 49.4259 0.08231 49.6247 0.228823 49.7712C0.375336 49.9177 0.57405 50 0.78125 50H49.2188C49.426 50 49.6247 49.9177 49.7712 49.7712C49.9177 49.6247 50 49.4259 50 49.2187V46.0937C50 45.4721 49.7531 44.876 49.3135 44.4365C48.874 43.9969 48.2779 43.75 47.6562 43.75H46.875V42.8937C46.873 42.4107 46.7218 41.9401 46.4421 41.5463C46.1624 41.1525 45.7679 40.8547 45.3125 40.6937V24.8562C45.7679 24.6952 46.1624 24.3975 46.4421 24.0037C46.7218 23.6099 46.873 23.1393 46.875 22.6562ZM23.6969 2.00155C24.0821 1.74186 24.5362 1.60312 25.0008 1.60312C25.4654 1.60312 25.9194 1.74186 26.3047 2.00155L46.6484 15.625H3.35156L23.6969 2.00155ZM4.6875 42.8937C4.6893 42.7208 4.74911 42.5535 4.85734 42.4187C4.96557 42.2838 5.11595 42.1892 5.28437 42.15C5.34402 42.1702 5.40596 42.1828 5.46875 42.1875H10.1562C10.219 42.1828 10.281 42.1702 10.3406 42.15C10.509 42.1892 10.6594 42.2838 10.7677 42.4187C10.8759 42.5535 10.9357 42.7208 10.9375 42.8937V43.675H4.6875V42.8937ZM5.46875 23.4375C5.26155 23.4375 5.06284 23.3552 4.91632 23.2087C4.76981 23.0622 4.6875 22.8634 4.6875 22.6562V21.875H10.9375V22.6562C10.9375 22.8634 10.8552 23.0622 10.7087 23.2087C10.5622 23.3552 10.3635 23.4375 10.1562 23.4375H5.46875ZM9.375 25V40.55H6.25V25H9.375ZM47.6562 45.3125C47.8635 45.3125 48.0622 45.3948 48.2087 45.5413C48.3552 45.6878 48.4375 45.8865 48.4375 46.0937V48.4375H1.5625V46.0937C1.5625 45.8865 1.64481 45.6878 1.79132 45.5413C1.93784 45.3948 2.13655 45.3125 2.34375 45.3125H18.75C18.9572 45.3125 19.1559 45.2302 19.3024 45.0837C19.4489 44.9372 19.5312 44.7384 19.5312 44.5312C19.5312 44.324 19.4489 44.1253 19.3024 43.9788C19.1559 43.8323 18.9572 43.75 18.75 43.75H12.5V42.8937C12.498 42.4107 12.3468 41.9401 12.0671 41.5463C11.7874 41.1525 11.3929 40.8547 10.9375 40.6937V24.8562C11.3929 24.6952 11.7874 24.3975 12.0671 24.0037C12.3468 23.6099 12.498 23.1393 12.5 22.6562V21.875H17.1875C17.3947 21.875 17.5934 21.7927 17.7399 21.6462C17.8864 21.4997 17.9688 21.3009 17.9688 21.0937C17.9688 20.8865 17.8864 20.6878 17.7399 20.5413C17.5934 20.3948 17.3947 20.3125 17.1875 20.3125H2.34375C2.13655 20.3125 1.93784 20.2302 1.79132 20.0837C1.64481 19.9372 1.5625 19.7384 1.5625 19.5312V17.1875H48.4375V19.5312C48.4375 19.7384 48.3552 19.9372 48.2087 20.0837C48.0622 20.2302 47.8635 20.3125 47.6562 20.3125H32.0312C31.824 20.3125 31.6253 20.3948 31.4788 20.5413C31.3323 20.6878 31.25 20.8865 31.25 21.0937C31.25 21.3009 31.3323 21.4997 31.4788 21.6462C31.6253 21.7927 31.824 21.875 32.0312 21.875H37.5V22.6562C37.502 23.1393 37.6532 23.6099 37.9329 24.0037C38.2126 24.3975 38.6071 24.6952 39.0625 24.8562V40.6937C38.6071 40.8547 38.2126 41.1525 37.9329 41.5463C37.6532 41.9401 37.502 42.4107 37.5 42.8937V43.75H30.4688C30.2615 43.75 30.0628 43.8323 29.9163 43.9788C29.7698 44.1253 29.6875 44.324 29.6875 44.5312C29.6875 44.7384 29.7698 44.9372 29.9163 45.0837C30.0628 45.2302 30.2615 45.3125 30.4688 45.3125H47.6562ZM44.5312 42.1875C44.594 42.1828 44.656 42.1702 44.7156 42.15C44.884 42.1892 45.0344 42.2838 45.1427 42.4187C45.2509 42.5535 45.3107 42.7208 45.3125 42.8937V43.675H39.0625V42.8937C39.0643 42.7208 39.1241 42.5535 39.2323 42.4187C39.3406 42.2838 39.491 42.1892 39.6594 42.15C39.719 42.1702 39.781 42.1828 39.8438 42.1875H44.5312ZM40.625 40.55V25H43.75V40.55H40.625ZM44.5312 23.4375H39.8438C39.6365 23.4375 39.4378 23.3552 39.2913 23.2087C39.1448 23.0622 39.0625 22.8634 39.0625 22.6562V21.875H45.3125V22.6562C45.3125 22.8634 45.2302 23.0622 45.0837 23.2087C44.9372 23.3552 44.7385 23.4375 44.5312 23.4375ZM25 6.17655C24.3819 6.17655 23.7777 6.35983 23.2638 6.70321C22.7499 7.04659 22.3494 7.53465 22.1129 8.10567C21.8764 8.67669 21.8145 9.30502 21.935 9.91121C22.0556 10.5174 22.3533 11.0742 22.7903 11.5113C23.2273 11.9483 23.7842 12.2459 24.3903 12.3665C24.9965 12.4871 25.6249 12.4252 26.1959 12.1887C26.7669 11.9522 27.255 11.5516 27.5983 11.0377C27.9417 10.5238 28.125 9.91962 28.125 9.30155C28.125 8.47275 27.7958 7.67789 27.2097 7.09184C26.6237 6.50579 25.8288 6.17655 25 6.17655ZM25 10.8641C24.691 10.8641 24.3889 10.7724 24.1319 10.6007C23.875 10.429 23.6747 10.185 23.5564 9.8995C23.4382 9.61399 23.4072 9.29982 23.4675 8.99672C23.5278 8.69363 23.6766 8.41522 23.8951 8.1967C24.1137 7.97818 24.3921 7.82936 24.6952 7.76908C24.9983 7.70879 25.3124 7.73973 25.5979 7.85799C25.8835 7.97625 26.1275 8.17652 26.2992 8.43347C26.4709 8.69043 26.5625 8.99252 26.5625 9.30155C26.5625 9.71595 26.3979 10.1134 26.1049 10.4064C25.8118 10.6994 25.4144 10.8641 25 10.8641ZM25.7812 34.375H24.2188C23.8043 34.375 23.4069 34.2104 23.1139 33.9173C22.8209 33.6243 22.6562 33.2269 22.6562 32.8125C22.6562 32.6053 22.5739 32.4066 22.4274 32.2601C22.2809 32.1136 22.0822 32.0312 21.875 32.0312C21.6678 32.0312 21.4691 32.1136 21.3226 32.2601C21.1761 32.4066 21.0938 32.6053 21.0938 32.8125C21.0938 33.6413 21.423 34.4361 22.009 35.0222C22.5951 35.6083 23.3899 35.9375 24.2188 35.9375V36.7187C24.2188 36.9259 24.3011 37.1247 24.4476 37.2712C24.5941 37.4177 24.7928 37.5 25 37.5C25.2072 37.5 25.4059 37.4177 25.5524 37.2712C25.6989 37.1247 25.7812 36.9259 25.7812 36.7187V35.9375C26.6101 35.9375 27.4049 35.6083 27.991 35.0222C28.577 34.4361 28.9062 33.6413 28.9062 32.8125C28.9062 31.9837 28.577 31.1888 27.991 30.6028C27.4049 30.0167 26.6101 29.6875 25.7812 29.6875H24.2188C23.8043 29.6875 23.4069 29.5229 23.1139 29.2298C22.8209 28.9368 22.6562 28.5394 22.6562 28.125C22.6562 27.7106 22.8209 27.3132 23.1139 27.0201C23.4069 26.7271 23.8043 26.5625 24.2188 26.5625H25.7812C26.1957 26.5625 26.5931 26.7271 26.8861 27.0201C27.1791 27.3132 27.3438 27.7106 27.3438 28.125C27.3438 28.3322 27.4261 28.5309 27.5726 28.6774C27.7191 28.8239 27.9178 28.9062 28.125 28.9062C28.3322 28.9062 28.5309 28.8239 28.6774 28.6774C28.8239 28.5309 28.9062 28.3322 28.9062 28.125C28.9062 27.2962 28.577 26.5013 27.991 25.9153C27.4049 25.3292 26.6101 25 25.7812 25V24.2187C25.7812 24.0115 25.6989 23.8128 25.5524 23.6663C25.4059 23.5198 25.2072 23.4375 25 23.4375C24.7928 23.4375 24.5941 23.5198 24.4476 23.6663C24.3011 23.8128 24.2188 24.0115 24.2188 24.2187V25C23.3899 25 22.5951 25.3292 22.009 25.9153C21.423 26.5013 21.0938 27.2962 21.0938 28.125C21.0938 28.9538 21.423 29.7486 22.009 30.3347C22.5951 30.9208 23.3899 31.25 24.2188 31.25H25.7812C26.1957 31.25 26.5931 31.4146 26.8861 31.7076C27.1791 32.0007 27.3438 32.3981 27.3438 32.8125C27.3438 33.2269 27.1791 33.6243 26.8861 33.9173C26.5931 34.2104 26.1957 34.375 25.7812 34.375ZM26.6578 41.7687L25.7812 42.6453V39.8437C25.7812 39.6365 25.6989 39.4378 25.5524 39.2913C25.4059 39.1448 25.2072 39.0625 25 39.0625C24.7928 39.0625 24.5941 39.1448 24.4476 39.2913C24.3011 39.4378 24.2188 39.6365 24.2188 39.8437V42.6453L23.3422 41.7687C23.1948 41.6264 22.9975 41.5477 22.7927 41.5495C22.5878 41.5512 22.3919 41.6334 22.247 41.7783C22.1022 41.9231 22.02 42.1191 22.0182 42.3239C22.0164 42.5287 22.0952 42.7261 22.2375 42.8734L24.4453 45.0812C24.5179 45.154 24.6041 45.2117 24.699 45.2511C24.7939 45.2905 24.8957 45.3108 24.9984 45.3108C25.1012 45.3108 25.203 45.2905 25.2979 45.2511C25.3928 45.2117 25.479 45.154 25.5516 45.0812L27.7594 42.8734C27.9017 42.7261 27.9804 42.5287 27.9787 42.3239C27.9769 42.1191 27.8947 41.9231 27.7499 41.7783C27.605 41.6334 27.4091 41.5512 27.2042 41.5495C26.9994 41.5477 26.802 41.6264 26.6547 41.7687H26.6578Z" fill="white"/>
</g>
<defs>
<clipPath id="clip0_42_19">
<rect width="50" height="50" fill="white"/>
</clipPath>
</defs>
</svg>
