<svg width="30" height="30" viewBox="0 0 30 30" fill="none" xmlns="http://www.w3.org/2000/svg">
<path d="M13.6364 10.9091H19.0909C19.4526 10.9091 19.7994 10.7654 20.0551 10.5097C20.3109 10.254 20.4545 9.90711 20.4545 9.54545C20.4545 9.18379 20.3109 8.83695 20.0551 8.58122C19.7994 8.32549 19.4526 8.18182 19.0909 8.18182H16.3636V6.81818C16.3636 6.45652 16.22 6.10968 15.9642 5.85394C15.7085 5.59821 15.3617 5.45454 15 5.45454C14.6383 5.45454 14.2915 5.59821 14.0358 5.85394C13.78 6.10968 13.6364 6.45652 13.6364 6.81818V8.18182C12.5514 8.18182 11.5109 8.61282 10.7437 9.38002C9.97646 10.1472 9.54546 11.1877 9.54546 12.2727C9.54546 13.3577 9.97646 14.3982 10.7437 15.1654C11.5109 15.9326 12.5514 16.3636 13.6364 16.3636H16.3636C16.7253 16.3636 17.0721 16.5073 17.3279 16.763C17.5836 17.0188 17.7273 17.3656 17.7273 17.7273C17.7273 18.0889 17.5836 18.4358 17.3279 18.6915C17.0721 18.9472 16.7253 19.0909 16.3636 19.0909H10.9091C10.5474 19.0909 10.2006 19.2346 9.94486 19.4903C9.68913 19.746 9.54546 20.0929 9.54546 20.4545C9.54546 20.8162 9.68913 21.163 9.94486 21.4188C10.2006 21.6745 10.5474 21.8182 10.9091 21.8182H13.6364V23.1818C13.6364 23.5435 13.78 23.8903 14.0358 24.1461C14.2915 24.4018 14.6383 24.5455 15 24.5455C15.3617 24.5455 15.7085 24.4018 15.9642 24.1461C16.22 23.8903 16.3636 23.5435 16.3636 23.1818V21.8182C17.4486 21.8182 18.4892 21.3872 19.2563 20.62C20.0235 19.8528 20.4545 18.8122 20.4545 17.7273C20.4545 16.6423 20.0235 15.6018 19.2563 14.8346C18.4892 14.0674 17.4486 13.6364 16.3636 13.6364H13.6364C13.2747 13.6364 12.9279 13.4927 12.6721 13.237C12.4164 12.9812 12.2727 12.6344 12.2727 12.2727C12.2727 11.9111 12.4164 11.5642 12.6721 11.3085C12.9279 11.0528 13.2747 10.9091 13.6364 10.9091ZM15 0C12.0333 0 9.13319 0.879734 6.66645 2.52796C4.19972 4.17618 2.27713 6.51886 1.14181 9.25975C0.00649932 12.0006 -0.290551 15.0166 0.288227 17.9264C0.867006 20.8361 2.29562 23.5088 4.3934 25.6066C6.49119 27.7044 9.16393 29.133 12.0736 29.7118C14.9834 30.2906 17.9994 29.9935 20.7403 28.8582C23.4811 27.7229 25.8238 25.8003 27.472 23.3335C29.1203 20.8668 30 17.9667 30 15C30 11.0218 28.4196 7.20644 25.6066 4.3934C22.7936 1.58035 18.9782 0 15 0ZM15 27.2727C12.5727 27.2727 10.1999 26.5529 8.18164 25.2044C6.1634 23.8559 4.59038 21.9391 3.66148 19.6966C2.73259 17.454 2.48955 14.9864 2.9631 12.6057C3.43664 10.225 4.6055 8.03824 6.32188 6.32187C8.03825 4.6055 10.225 3.43664 12.6057 2.96309C14.9864 2.48954 17.454 2.73258 19.6966 3.66148C21.9391 4.59037 23.8559 6.1634 25.2044 8.18164C26.5529 10.1999 27.2727 12.5727 27.2727 15C27.2727 18.2549 25.9797 21.3765 23.6781 23.6781C21.3765 25.9797 18.2549 27.2727 15 27.2727Z" fill="black"/>
</svg>
